# Blender v2.93.1 OBJ File: 'scull_anim1.blend'
# www.blender.org
mtllib scull_anim1.mtl
o Cube.003
v 0.306103 0.362791 -0.885371
v 0.307371 0.711506 -0.716579
v 0.600150 0.568634 -0.593349
v 0.599890 0.292720 -0.723765
v 0.297732 0.021426 -0.911082
v 0.558689 0.000000 -0.684628
v 0.455914 -0.232163 -0.591364
v 0.311666 -0.206045 -0.676640
v 0.591312 -0.313279 -0.226131
v 0.679663 0.388495 -0.332715
v 0.631592 0.694166 -0.317678
v 0.531087 0.024917 0.505062
v 0.426183 0.045373 0.461924
v 0.483574 0.185974 0.508704
v 0.445533 -0.306888 -0.177361
v 0.318065 0.893266 -0.380452
v 0.287289 0.872619 0.334586
v 0.377066 0.710647 0.578337
v 0.494302 0.589190 0.510984
v 0.542052 0.671161 0.275640
v 0.301138 0.948068 -0.000016
v 0.598478 0.718423 0.000000
v 0.196952 -0.176735 0.253761
v 0.000000 -0.155731 0.256227
v 0.000000 -0.281448 -0.175048
v 0.296629 -0.300451 -0.175048
v 0.647213 0.389613 0.000000
v 0.629060 -0.001117 -0.278964
v 0.178882 0.788176 0.625018
v 0.000000 -0.333014 -0.543525
v 0.163251 -0.228355 -0.770895
v 0.279673 -0.343070 -0.475227
v 0.513595 0.289094 0.690641
v 0.478810 0.352678 0.675575
v 0.325413 0.309886 0.771631
v 0.325164 -0.229480 0.383801
v 0.422467 -0.083518 0.456845
v 0.332500 -0.285899 0.583761
v 0.671238 0.001006 0.200704
v 0.649343 0.001895 0.315573
v 0.610269 -0.115139 0.434577
v 0.644472 -0.088886 0.184825
v 0.583456 0.024461 0.514412
v 0.551334 0.021726 0.589185
v 0.621458 -0.063155 0.028471
v 0.579797 -0.080128 0.048597
v 0.501831 -0.087230 -0.064254
v 0.467536 -0.277282 0.576688
v 0.522907 -0.087917 0.455804
v 0.155767 -0.437413 0.886729
v 0.000000 -0.435241 0.966817
v 0.000000 -0.525978 0.958478
v 0.161354 -0.524331 0.894182
v 0.607489 -0.108589 0.216587
v 0.000000 0.106341 0.938254
v 0.080089 0.040599 0.851781
v 0.062374 0.183913 0.830684
v 0.000000 0.185523 0.858642
v 0.268540 -0.414503 0.719053
v 0.278239 -0.501183 0.732017
v 0.000000 -0.231796 0.977088
v 0.000000 -0.324819 0.952791
v 0.155514 -0.209045 0.872041
v 0.000000 0.410131 -0.960995
v 0.000000 0.768348 -0.794216
v 0.000000 -0.023088 -0.976584
v 0.000000 -0.216590 -0.798135
v 0.000000 0.314074 0.882902
v 0.196076 0.410903 0.861418
v 0.000000 0.815040 0.665281
v 0.000000 0.972374 -0.435959
v 0.000000 0.950537 0.376381
v 0.000000 1.030894 0.000000
v 0.136017 0.289885 0.866907
v 0.585429 -0.004430 0.410957
v 0.139347 0.248767 0.781543
v 0.530996 0.159456 0.628179
v 0.539222 0.208807 0.604026
v 0.317314 -0.391616 0.535715
v 0.302605 -0.242406 0.683813
v 0.614033 0.000118 -0.000086
v 0.590787 0.033317 0.008112
v 0.524240 0.250527 0.314885
v 0.545308 0.052650 0.198201
v 0.603986 -0.061076 -0.196340
v 0.218323 0.119179 0.550370
v 0.506452 0.251753 0.703055
v 0.104645 0.058609 0.805921
v 0.489402 -0.043805 0.182250
v 0.312866 -0.469744 0.520598
v 0.326837 -0.432712 0.398815
v 0.331389 -0.353324 0.395427
v 0.509601 0.041207 0.621819
v 0.000000 -0.221290 0.831736
v 0.084831 0.092980 0.730786
v 0.255631 -0.009007 0.770003
v 0.441342 -0.007757 0.683475
v 0.227641 -0.073923 0.776066
v 0.415497 -0.123989 0.123721
v 0.273905 -0.118181 0.323691
v 0.343339 -0.053957 0.311695
v 0.624978 -0.006856 0.223076
v 0.240092 -0.347071 0.396100
v 0.261782 -0.432712 0.398815
v 0.128004 -0.516252 0.866495
v 0.227273 -0.496280 0.711577
v 0.000000 -0.524826 0.902039
v 0.255005 -0.461810 0.501248
v 0.227273 -0.405858 0.711577
v 0.255005 -0.371387 0.501248
v 0.000000 -0.434403 0.902039
v 0.128004 -0.425830 0.866495
v 0.173496 -0.246612 0.469095
v 0.000000 -0.334967 0.838356
v 0.076127 -0.327984 0.809406
v 0.139435 -0.311717 0.683227
v 0.000000 -0.236672 0.678331
v 0.000000 -0.206241 0.464179
v -0.306103 0.362791 -0.885371
v -0.599890 0.292720 -0.723765
v -0.600150 0.568634 -0.593349
v -0.307371 0.711506 -0.716579
v -0.297732 0.021426 -0.911082
v -0.311666 -0.206045 -0.676640
v -0.455914 -0.232163 -0.591364
v -0.558689 0.000000 -0.684628
v -0.591312 -0.313279 -0.226131
v -0.679663 0.388495 -0.332715
v -0.631592 0.694166 -0.317678
v -0.531087 0.024917 0.505062
v -0.483574 0.185974 0.508704
v -0.426183 0.045373 0.461924
v -0.445533 -0.306888 -0.177361
v -0.318065 0.893266 -0.380452
v -0.287289 0.872619 0.334586
v -0.542052 0.671161 0.275640
v -0.494302 0.589190 0.510984
v -0.377066 0.710647 0.578337
v -0.301138 0.948068 -0.000016
v -0.598478 0.718423 0.000000
v -0.196952 -0.176735 0.253761
v -0.296629 -0.300451 -0.175048
v -0.647213 0.389613 0.000000
v -0.629060 -0.001117 -0.278964
v -0.178882 0.788176 0.625018
v -0.279673 -0.343070 -0.475227
v -0.163251 -0.228355 -0.770895
v -0.513595 0.289094 0.690641
v -0.325413 0.309886 0.771631
v -0.478810 0.352678 0.675575
v -0.325164 -0.229480 0.383801
v -0.332500 -0.285899 0.583761
v -0.422467 -0.083518 0.456845
v -0.671238 0.001006 0.200704
v -0.644472 -0.088886 0.184825
v -0.610269 -0.115139 0.434577
v -0.649343 0.001895 0.315573
v -0.551334 0.021726 0.589185
v -0.583456 0.024461 0.514412
v -0.621458 -0.063155 0.028471
v -0.501831 -0.087230 -0.064254
v -0.579797 -0.080128 0.048597
v -0.522907 -0.087917 0.455804
v -0.467536 -0.277282 0.576688
v -0.155767 -0.437413 0.886729
v -0.161354 -0.524331 0.894182
v -0.607489 -0.108589 0.216587
v -0.062374 0.183913 0.830684
v -0.080089 0.040599 0.851781
v -0.268540 -0.414503 0.719053
v -0.278239 -0.501183 0.732017
v -0.155514 -0.209045 0.872041
v -0.196076 0.410903 0.861418
v -0.136017 0.289885 0.866907
v -0.585429 -0.004430 0.410957
v -0.139347 0.248767 0.781543
v -0.530996 0.159456 0.628179
v -0.539222 0.208807 0.604026
v -0.302605 -0.242406 0.683813
v -0.317314 -0.391616 0.535715
v -0.614033 0.000118 -0.000086
v -0.590787 0.033317 0.008112
v -0.524240 0.250527 0.314885
v -0.545308 0.052650 0.198201
v -0.603986 -0.061076 -0.196340
v -0.218323 0.119179 0.550370
v -0.506452 0.251753 0.703055
v -0.104645 0.058609 0.805921
v -0.489402 -0.043805 0.182250
v -0.331389 -0.353324 0.395427
v -0.326837 -0.432712 0.398815
v -0.312866 -0.469744 0.520598
v -0.509601 0.041207 0.621819
v -0.084831 0.092980 0.730786
v -0.441342 -0.007757 0.683475
v -0.255631 -0.009007 0.770003
v -0.227641 -0.073923 0.776066
v -0.415497 -0.123989 0.123721
v -0.343339 -0.053957 0.311695
v -0.273905 -0.118181 0.323691
v -0.624978 -0.006856 0.223076
v -0.240092 -0.347071 0.396100
v -0.261782 -0.432712 0.398815
v -0.227273 -0.496280 0.711577
v -0.128004 -0.516252 0.866495
v -0.255005 -0.461810 0.501248
v -0.255005 -0.371387 0.501248
v -0.227273 -0.405858 0.711577
v -0.128004 -0.425830 0.866495
v -0.173496 -0.246612 0.469095
v -0.076127 -0.327984 0.809406
v -0.139435 -0.311717 0.683227
vn 0.5111 0.3703 -0.7757
vn 0.4562 -0.5734 -0.6805
vn 0.7699 -0.5001 -0.3965
vn 0.9699 0.1311 -0.2053
vn 0.3996 0.1384 -0.9062
vn -0.0873 -0.9800 -0.1791
vn 0.5403 0.7365 -0.4071
vn 0.6817 0.6744 0.2836
vn 0.6146 0.7567 0.2229
vn -0.0765 -0.9600 0.2695
vn 0.9645 0.1430 0.2220
vn 0.5772 0.8150 -0.0509
vn 0.9846 0.1480 0.0935
vn 0.9742 -0.1536 -0.1653
vn 0.9742 -0.1533 -0.1654
vn 0.9745 -0.1478 -0.1687
vn 0.5653 -0.0616 -0.8226
vn 0.4138 0.8211 0.3932
vn 0.1841 -0.8897 -0.4177
vn 0.3982 0.4120 0.8195
vn 0.4875 -0.6120 -0.6228
vn 0.8570 -0.4868 -0.1688
vn 0.9617 -0.2406 0.1312
vn 0.9184 -0.0482 0.3928
vn 0.3082 -0.9388 -0.1538
vn -0.3382 -0.4341 -0.8350
vn 0.4144 0.0085 0.9101
vn 0.3008 -0.9319 -0.2027
vn 0.6815 0.3461 0.6448
vn 0.8035 0.1388 0.5789
vn 0.5682 -0.2080 0.7962
vn 0.2860 0.4105 -0.8658
vn 0.1976 -0.6110 -0.7666
vn 0.0602 0.4593 0.8862
vn 0.0000 -0.9094 -0.4159
vn 0.0038 -0.9094 -0.4158
vn 0.2818 0.8369 -0.4693
vn 0.2664 0.8835 0.3853
vn 0.2715 0.9390 0.2111
vn 0.2616 0.9567 -0.1274
vn 0.1147 -0.0119 0.9933
vn 0.2275 0.0494 -0.9725
vn -0.0665 -0.9878 0.1408
vn -0.0405 -0.9889 0.1427
vn 0.7075 -0.6315 -0.3172
vn -0.4543 0.8558 -0.2476
vn 0.7219 -0.6120 0.3230
vn 0.8015 0.2848 0.5258
vn 0.9202 0.0286 0.3904
vn 0.9444 -0.1801 0.2752
vn 0.9639 -0.1404 -0.2263
vn 0.8233 0.5661 0.0419
vn 0.9407 -0.0924 0.3265
vn 0.2164 -0.9760 -0.0258
vn 0.9682 -0.0768 0.2381
vn 0.7967 -0.1102 0.5943
vn 0.2564 -0.4936 0.8310
vn 0.9746 -0.1465 -0.1695
vn -0.1058 -0.6433 0.7583
vn 0.1698 -0.2958 0.9400
vn 0.0034 -0.7583 0.6519
vn 0.8361 0.1796 0.5183
vn -0.1489 -0.9751 0.1643
vn 0.5399 0.6909 -0.4807
vn 0.9941 -0.0634 0.0882
vn 0.9991 -0.0404 0.0086
vn 0.9772 0.0284 0.2104
vn 0.8077 0.0053 0.5896
vn 0.4356 0.0763 0.8969
vn -0.2404 -0.0087 0.9706
vn -0.2168 -0.3018 0.9284
vn -0.0968 0.9927 0.0718
vn 0.3030 -0.8539 0.4231
vn 0.7146 -0.4299 0.5519
vn 0.2883 -0.7899 0.5413
vn 0.1504 0.8290 0.5386
vn 0.4209 -0.0972 0.9019
vn 0.7891 0.0149 0.6140
vn 0.4003 -0.0874 0.9122
vn 0.4663 -0.2745 0.8410
vn 0.9892 -0.1462 -0.0050
vn 0.0561 0.9619 -0.2676
vn 0.9813 -0.0238 0.1908
vn 0.9493 0.0026 0.3143
vn 0.9908 -0.0271 0.1325
vn 0.0796 -0.9053 0.4173
vn -0.0727 -0.9969 -0.0290
vn 0.8643 -0.3870 0.3213
vn 0.6849 -0.7218 0.0996
vn 0.3844 0.0253 -0.9228
vn -0.9011 0.3313 -0.2798
vn -0.7848 0.2949 -0.5451
vn 0.8817 -0.2331 0.4101
vn -0.9700 0.1576 0.1850
vn -0.1764 0.9832 -0.0466
vn 0.3472 0.9377 0.0123
vn 0.9586 -0.1463 0.2442
vn 0.8525 0.3818 -0.3571
vn 0.6759 -0.0842 -0.7322
vn 0.7556 -0.4264 0.4972
vn -0.0197 -0.5292 -0.8482
vn 0.5839 0.2394 0.7758
vn 0.3956 0.8209 0.4119
vn 0.4465 0.8524 0.2722
vn 0.4488 0.7236 0.5245
vn 0.9376 0.3349 -0.0941
vn 0.9841 -0.1313 0.1198
vn 0.9323 -0.0057 0.3616
vn 0.4601 -0.7596 0.4596
vn 0.6638 -0.7301 0.1621
vn 0.6121 0.3536 -0.7073
vn 0.4060 0.2174 0.8876
vn 0.0080 0.3996 -0.9167
vn 0.5662 -0.1461 0.8112
vn 0.6366 0.0786 0.7672
vn 0.8107 -0.2493 0.5297
vn 0.6682 -0.2170 0.7116
vn 0.6661 0.0102 -0.7458
vn 0.8828 -0.4658 -0.0611
vn 0.6069 -0.4591 0.6488
vn 0.5943 -0.3606 0.7189
vn 0.6413 -0.6052 0.4717
vn 0.3891 -0.8707 0.3008
vn 0.6975 -0.0642 -0.7137
vn 0.2588 -0.8733 0.4128
vn 0.7054 -0.0310 -0.7081
vn -0.0500 -0.6478 -0.7601
vn -0.0058 -0.0376 -0.9993
vn 0.4572 -0.1874 0.8694
vn 0.5407 -0.0539 0.8395
vn 0.7184 0.3650 0.5922
vn -0.0555 -0.9845 -0.1665
vn -0.0541 -0.9838 -0.1707
vn -0.0544 -0.9838 -0.1706
vn -0.0022 -0.9941 -0.1082
vn -0.0000 -0.9941 -0.1082
vn -0.0171 -0.9586 -0.2843
vn -0.0568 -0.9851 -0.1624
vn -0.9914 0.0000 -0.1307
vn -0.2676 0.0000 -0.9635
vn -0.8420 0.0000 -0.5395
vn -0.9925 -0.1222 0.0075
vn -0.8362 -0.5484 -0.0082
vn -0.2131 -0.5503 -0.8073
vn -0.7294 -0.6347 -0.2551
vn -0.6201 -0.6480 -0.4422
vn -0.3304 -0.9153 -0.2304
vn -0.4388 -0.8366 -0.3280
vn -0.1200 -0.8459 -0.5196
vn -0.8798 -0.4156 -0.2307
vn -0.1552 -0.9479 -0.2782
vn 0.9450 -0.0301 0.3258
vn 0.5629 0.3619 0.7431
vn 0.3798 0.5036 0.7760
vn -0.5111 0.3703 -0.7757
vn -0.4562 -0.5734 -0.6805
vn -0.7699 -0.5001 -0.3965
vn -0.9699 0.1311 -0.2053
vn -0.3996 0.1384 -0.9062
vn 0.0873 -0.9800 -0.1791
vn -0.5403 0.7365 -0.4071
vn -0.6817 0.6744 0.2836
vn -0.6146 0.7567 0.2229
vn 0.0765 -0.9600 0.2695
vn -0.9645 0.1430 0.2220
vn -0.5772 0.8150 -0.0509
vn -0.9846 0.1480 0.0935
vn -0.9742 -0.1536 -0.1653
vn -0.9745 -0.1478 -0.1687
vn -0.9742 -0.1533 -0.1654
vn -0.5653 -0.0616 -0.8226
vn -0.4138 0.8211 0.3932
vn -0.1841 -0.8897 -0.4177
vn -0.3982 0.4120 0.8195
vn -0.4875 -0.6120 -0.6228
vn -0.8570 -0.4868 -0.1688
vn -0.9617 -0.2406 0.1312
vn -0.9184 -0.0482 0.3928
vn -0.3082 -0.9388 -0.1538
vn 0.3382 -0.4341 -0.8350
vn -0.4144 0.0085 0.9101
vn -0.3008 -0.9319 -0.2027
vn -0.6815 0.3461 0.6448
vn -0.8035 0.1388 0.5789
vn -0.5682 -0.2080 0.7962
vn -0.2860 0.4105 -0.8658
vn -0.1976 -0.6110 -0.7666
vn -0.0602 0.4593 0.8862
vn -0.0038 -0.9094 -0.4158
vn -0.2818 0.8369 -0.4693
vn -0.2664 0.8835 0.3853
vn -0.2715 0.9390 0.2111
vn -0.2616 0.9567 -0.1274
vn -0.1147 -0.0119 0.9933
vn -0.2275 0.0494 -0.9725
vn 0.0665 -0.9878 0.1408
vn 0.0405 -0.9889 0.1427
vn -0.7075 -0.6315 -0.3172
vn 0.4543 0.8558 -0.2476
vn -0.7219 -0.6120 0.3230
vn -0.8015 0.2848 0.5258
vn -0.9202 0.0286 0.3904
vn -0.9444 -0.1801 0.2752
vn -0.9639 -0.1404 -0.2263
vn -0.8233 0.5661 0.0419
vn -0.9407 -0.0924 0.3265
vn -0.2164 -0.9760 -0.0258
vn -0.9682 -0.0768 0.2381
vn -0.7967 -0.1102 0.5943
vn -0.2564 -0.4936 0.8310
vn -0.9746 -0.1465 -0.1695
vn 0.1058 -0.6433 0.7583
vn -0.1698 -0.2958 0.9400
vn -0.0034 -0.7583 0.6519
vn -0.8361 0.1796 0.5183
vn 0.1489 -0.9751 0.1643
vn -0.5399 0.6909 -0.4807
vn -0.9941 -0.0634 0.0882
vn -0.9991 -0.0404 0.0086
vn -0.9772 0.0284 0.2104
vn -0.8077 0.0053 0.5896
vn -0.4356 0.0763 0.8969
vn 0.2404 -0.0087 0.9706
vn 0.2168 -0.3018 0.9284
vn 0.0968 0.9927 0.0718
vn -0.3030 -0.8539 0.4231
vn -0.7146 -0.4299 0.5519
vn -0.2883 -0.7899 0.5413
vn -0.1504 0.8290 0.5386
vn -0.4209 -0.0972 0.9019
vn -0.7891 0.0149 0.6140
vn -0.4003 -0.0874 0.9122
vn -0.4663 -0.2745 0.8410
vn -0.9892 -0.1462 -0.0050
vn -0.0561 0.9619 -0.2676
vn -0.9813 -0.0238 0.1908
vn -0.9493 0.0026 0.3143
vn -0.9908 -0.0271 0.1325
vn -0.0796 -0.9053 0.4173
vn 0.0727 -0.9969 -0.0290
vn -0.8643 -0.3870 0.3213
vn -0.6849 -0.7218 0.0996
vn -0.3844 0.0253 -0.9228
vn 0.9011 0.3313 -0.2798
vn 0.7848 0.2949 -0.5451
vn -0.8817 -0.2331 0.4101
vn 0.9700 0.1576 0.1850
vn 0.1764 0.9832 -0.0466
vn -0.3472 0.9377 0.0123
vn -0.9586 -0.1463 0.2442
vn -0.8525 0.3818 -0.3571
vn -0.6759 -0.0842 -0.7322
vn -0.7556 -0.4264 0.4972
vn 0.0197 -0.5292 -0.8482
vn -0.5839 0.2394 0.7758
vn -0.3956 0.8209 0.4119
vn -0.4465 0.8524 0.2722
vn -0.4488 0.7236 0.5245
vn -0.9376 0.3349 -0.0941
vn -0.9841 -0.1313 0.1198
vn -0.9323 -0.0057 0.3616
vn -0.4601 -0.7596 0.4596
vn -0.6638 -0.7301 0.1621
vn -0.6121 0.3536 -0.7073
vn -0.4060 0.2174 0.8876
vn -0.0080 0.3996 -0.9167
vn -0.5662 -0.1461 0.8112
vn -0.6366 0.0786 0.7672
vn -0.8107 -0.2493 0.5297
vn -0.6682 -0.2170 0.7116
vn -0.6661 0.0102 -0.7458
vn -0.8828 -0.4658 -0.0611
vn -0.6069 -0.4591 0.6488
vn -0.5943 -0.3606 0.7189
vn -0.6413 -0.6052 0.4717
vn -0.3891 -0.8707 0.3008
vn -0.6975 -0.0642 -0.7137
vn -0.2588 -0.8733 0.4128
vn -0.7054 -0.0310 -0.7081
vn 0.0500 -0.6478 -0.7601
vn 0.0058 -0.0376 -0.9993
vn -0.4572 -0.1874 0.8694
vn -0.5407 -0.0539 0.8395
vn -0.7184 0.3650 0.5922
vn 0.0555 -0.9845 -0.1665
vn 0.0544 -0.9838 -0.1706
vn 0.0541 -0.9838 -0.1707
vn 0.0022 -0.9941 -0.1082
vn 0.0171 -0.9586 -0.2843
vn 0.0568 -0.9851 -0.1624
vn 0.9914 0.0000 -0.1307
vn 0.2676 0.0000 -0.9635
vn 0.8420 0.0000 -0.5395
vn 0.9925 -0.1222 0.0075
vn 0.8362 -0.5484 -0.0082
vn 0.2131 -0.5503 -0.8073
vn 0.7294 -0.6347 -0.2551
vn 0.6201 -0.6480 -0.4422
vn 0.3304 -0.9153 -0.2304
vn 0.4388 -0.8366 -0.3280
vn 0.1200 -0.8459 -0.5196
vn 0.8798 -0.4156 -0.2307
vn 0.1552 -0.9479 -0.2782
vn -0.9450 -0.0301 0.3258
vn -0.5629 0.3619 0.7431
vn -0.3798 0.5036 0.7760
usemtl Material.002
s 1
f 1//1 2//1 3//1 4//1
f 5//2 6//2 7//2 8//2
f 6//3 9//3 7//3
f 10//4 4//4 3//4 11//4
f 12//5 13//5 14//5
f 15//6 8//6 7//6 9//6
f 16//7 11//7 3//7 2//7
f 17//8 18//8 19//8 20//8
f 21//9 17//9 20//9 22//9
f 23//10 24//10 25//10 26//10
f 27//11 22//11 20//11
f 21//12 22//12 11//12 16//12
f 27//13 10//13 11//13 22//13
f 10//14 28//15 6//16 4//14
f 5//17 1//17 4//17 6//17
f 17//18 29//18 18//18
f 30//19 31//19 8//19 32//19
f 33//20 34//20 35//20
f 5//21 8//21 31//21
f 36//22 37//22 38//22
f 39//23 40//23 41//23 42//23
f 41//24 43//24 44//24
f 45//25 46//25 47//25
f 41//26 48//26 49//26
f 50//27 51//27 52//27 53//27
f 45//28 42//28 54//28 46//28
f 55//29 56//29 57//29 58//29
f 59//30 50//30 53//30 60//30
f 61//31 62//31 63//31
f 64//32 65//32 2//32 1//32
f 66//33 5//33 31//33 67//33
f 68//34 69//34 29//34 70//34
f 30//35 67//35 31//36
f 71//37 16//37 2//37 65//37
f 72//38 70//38 29//38 17//38
f 73//39 72//39 17//39 21//39
f 73//40 21//40 16//40 71//40
f 68//41 74//41 69//41
f 66//42 64//42 1//42 5//42
f 32//43 26//43 25//43 30//43
f 32//44 15//44 26//44
f 32//45 8//45 15//45
f 43//46 40//46 75//46
f 74//47 57//47 76//47
f 56//48 55//48 63//48
f 77//49 44//49 43//49 78//49
f 59//50 79//50 38//50 80//50
f 81//51 39//51 42//51 45//51
f 81//52 28//52 82//52
f 83//53 84//53 27//53
f 85//54 45//54 47//54
f 28//55 85//55 9//55
f 9//56 85//56 47//56
f 9//57 47//57 15//57
f 6//16 28//15 9//58
f 86//59 77//59 87//59
f 58//60 57//60 74//60 68//60
f 86//61 87//61 35//61
f 57//62 56//62 88//62
f 89//63 47//63 46//63
f 33//64 78//64 14//64
f 79//65 90//65 91//65 92//65
f 38//66 79//66 92//66 36//66
f 60//67 90//67 79//67 59//67
f 80//68 63//68 50//68 59//68
f 63//69 62//69 51//69 50//69
f 77//70 86//70 93//70
f 63//71 55//71 94//71
f 61//72 63//72 94//72
f 35//73 74//73 76//73
f 57//74 95//74 76//74
f 35//75 76//75 86//75
f 93//76 86//76 96//76 97//76
f 96//77 98//77 97//77
f 80//78 98//78 63//78
f 98//79 96//79 56//79
f 97//80 98//80 80//80 48//80
f 85//81 28//81 81//81 45//81
f 12//82 43//82 75//82
f 20//83 19//83 83//83
f 41//84 40//84 43//84
f 19//85 34//85 14//85 83//85
f 80//86 38//86 48//86
f 42//87 41//87 49//87 54//87
f 47//88 99//88 15//88
f 13//89 100//89 101//89
f 13//90 12//90 37//90
f 75//91 102//91 54//91 49//91
f 12//92 75//92 49//92
f 82//93 84//93 89//93 46//93
f 102//94 82//94 46//94 54//94
f 39//95 102//95 75//95 40//95
f 81//96 82//96 102//96 39//96
f 84//97 82//97 27//97
f 34//98 33//98 14//98
f 37//99 36//99 100//99
f 76//100 95//100 86//100
f 37//101 49//101 48//101 38//101
f 63//102 98//102 56//102
f 96//103 86//103 95//103
f 96//104 95//104 88//104
f 56//105 96//105 88//105
f 95//106 57//106 88//106
f 28//107 10//107 27//107 82//107
f 83//108 27//108 20//108
f 89//109 101//109 99//109
f 47//110 89//110 99//110
f 43//111 12//111 14//111 78//111
f 35//112 87//112 33//112
f 37//113 12//113 49//113
f 77//114 93//114 44//114
f 44//115 93//115 97//115
f 48//116 41//116 44//116
f 48//117 44//117 97//117
f 100//118 13//118 37//118
f 13//119 101//119 83//119 14//119
f 89//120 84//120 101//120
f 101//121 84//121 83//121
f 101//122 100//122 99//122
f 23//123 99//123 100//123
f 36//124 23//124 100//124
f 99//125 23//125 26//125 15//125
f 36//126 92//126 23//126
f 103//127 23//127 92//127
f 104//128 103//128 92//128 91//128
f 69//129 74//129 35//129
f 34//130 69//130 35//130
f 19//131 18//131 34//131
f 60//132 53//133 105//133 106//134
f 53//135 52//136 107//136 105//135
f 91//137 90//137 108//137 104//137
f 90//138 60//132 106//134 108//138
f 108//139 106//139 109//139 110//139
f 105//140 107//140 111//140 112//140
f 106//141 105//141 112//141 109//141
f 104//142 108//142 110//142 103//142
f 103//143 110//143 113//143
f 112//144 111//144 114//144 115//144
f 110//145 109//145 116//145 113//145
f 109//146 112//146 115//146 116//146
f 113//147 116//147 117//147 118//147
f 116//148 115//148 117//148
f 115//149 114//149 117//149
f 103//150 113//150 23//150
f 23//151 113//151 118//151 24//151
f 78//152 33//152 87//152 77//152
f 69//153 34//153 18//153
f 29//154 69//154 18//154
f 119//155 120//155 121//155 122//155
f 123//156 124//156 125//156 126//156
f 126//157 125//157 127//157
f 128//158 129//158 121//158 120//158
f 130//159 131//159 132//159
f 133//160 127//160 125//160 124//160
f 134//161 122//161 121//161 129//161
f 135//162 136//162 137//162 138//162
f 139//163 140//163 136//163 135//163
f 141//164 142//164 25//164 24//164
f 143//165 136//165 140//165
f 139//166 134//166 129//166 140//166
f 143//167 140//167 129//167 128//167
f 128//168 120//168 126//169 144//170
f 123//171 126//171 120//171 119//171
f 135//172 138//172 145//172
f 30//173 146//173 124//173 147//173
f 148//174 149//174 150//174
f 123//175 147//175 124//175
f 151//176 152//176 153//176
f 154//177 155//177 156//177 157//177
f 156//178 158//178 159//178
f 160//179 161//179 162//179
f 156//180 163//180 164//180
f 165//181 166//181 52//181 51//181
f 160//182 162//182 167//182 155//182
f 55//183 58//183 168//183 169//183
f 170//184 171//184 166//184 165//184
f 61//185 172//185 62//185
f 64//186 119//186 122//186 65//186
f 66//187 67//187 147//187 123//187
f 68//188 70//188 145//188 173//188
f 30//35 147//189 67//35
f 71//190 65//190 122//190 134//190
f 72//191 135//191 145//191 70//191
f 73//192 139//192 135//192 72//192
f 73//193 71//193 134//193 139//193
f 68//194 173//194 174//194
f 66//195 123//195 119//195 64//195
f 146//196 30//196 25//196 142//196
f 146//197 142//197 133//197
f 146//198 133//198 124//198
f 159//199 175//199 157//199
f 174//200 176//200 168//200
f 169//201 172//201 55//201
f 177//202 178//202 159//202 158//202
f 170//203 179//203 152//203 180//203
f 181//204 160//204 155//204 154//204
f 181//205 182//205 144//205
f 183//206 143//206 184//206
f 185//207 161//207 160//207
f 144//208 127//208 185//208
f 127//209 161//209 185//209
f 127//210 133//210 161//210
f 126//169 127//211 144//170
f 186//212 187//212 177//212
f 58//213 68//213 174//213 168//213
f 186//214 149//214 187//214
f 168//215 188//215 169//215
f 189//216 162//216 161//216
f 148//217 131//217 178//217
f 180//218 190//218 191//218 192//218
f 152//219 151//219 190//219 180//219
f 171//220 170//220 180//220 192//220
f 179//221 170//221 165//221 172//221
f 172//222 165//222 51//222 62//222
f 177//223 193//223 186//223
f 172//224 94//224 55//224
f 61//225 94//225 172//225
f 149//226 176//226 174//226
f 168//227 176//227 194//227
f 149//228 186//228 176//228
f 193//229 195//229 196//229 186//229
f 196//230 195//230 197//230
f 179//231 172//231 197//231
f 197//232 169//232 196//232
f 195//233 164//233 179//233 197//233
f 185//234 160//234 181//234 144//234
f 130//235 175//235 159//235
f 136//236 183//236 137//236
f 156//237 159//237 157//237
f 137//238 183//238 131//238 150//238
f 179//239 164//239 152//239
f 155//240 167//240 163//240 156//240
f 161//241 133//241 198//241
f 132//242 199//242 200//242
f 132//243 153//243 130//243
f 175//244 163//244 167//244 201//244
f 130//245 163//245 175//245
f 182//246 162//246 189//246 184//246
f 201//247 167//247 162//247 182//247
f 154//248 157//248 175//248 201//248
f 181//249 154//249 201//249 182//249
f 184//250 143//250 182//250
f 150//251 131//251 148//251
f 153//252 200//252 151//252
f 176//253 186//253 194//253
f 153//254 152//254 164//254 163//254
f 172//255 169//255 197//255
f 196//256 194//256 186//256
f 196//257 188//257 194//257
f 169//258 188//258 196//258
f 194//259 188//259 168//259
f 144//260 182//260 143//260 128//260
f 183//261 136//261 143//261
f 189//262 198//262 199//262
f 161//263 198//263 189//263
f 159//264 178//264 131//264 130//264
f 149//265 148//265 187//265
f 153//266 163//266 130//266
f 177//267 158//267 193//267
f 158//268 195//268 193//268
f 164//269 158//269 156//269
f 164//270 195//270 158//270
f 200//271 153//271 132//271
f 132//272 131//272 183//272 199//272
f 189//273 199//273 184//273
f 199//274 183//274 184//274
f 199//275 198//275 200//275
f 141//276 200//276 198//276
f 151//277 200//277 141//277
f 198//278 133//278 142//278 141//278
f 151//279 141//279 190//279
f 202//280 190//280 141//280
f 203//281 191//281 190//281 202//281
f 173//282 149//282 174//282
f 150//283 149//283 173//283
f 137//284 150//284 138//284
f 171//285 204//286 205//287 166//287
f 166//288 205//288 107//136 52//136
f 191//289 203//289 206//289 192//289
f 192//290 206//290 204//286 171//285
f 206//291 207//291 208//291 204//291
f 205//292 209//292 111//292 107//292
f 204//293 208//293 209//293 205//293
f 203//294 202//294 207//294 206//294
f 202//295 210//295 207//295
f 209//296 211//296 114//296 111//296
f 207//297 210//297 212//297 208//297
f 208//298 212//298 211//298 209//298
f 210//299 118//299 117//299 212//299
f 212//300 117//300 211//300
f 211//301 117//301 114//301
f 202//302 141//302 210//302
f 141//303 24//303 118//303 210//303
f 178//304 177//304 187//304 148//304
f 173//305 138//305 150//305
f 145//306 138//306 173//306
